<?xml version="1.0" encoding="utf-8"?>
<!-- Generator: Adobe Illustrator 27.5.0, SVG Export Plug-In . SVG Version: 6.00 Build 0)  -->
<svg version="1.1" id="Capa_1" xmlns="http://www.w3.org/2000/svg" xmlns:xlink="http://www.w3.org/1999/xlink" x="0px" y="0px"
	 viewBox="0 0 425.197 369.933" style="enable-background:new 0 0 425.197 369.933;" xml:space="preserve">
<rect y="0.001" style="fill:#FFFFFF;" width="425.197" height="369.933"/>
<g>
	<g>
		<g>
			<path style="fill:#B2B2B2;" d="M127.37,115.678c2.898-23.044,22.603-40.931,46.424-40.931s43.514,17.887,46.41,40.931h23.088
				c-2.971-35.729-33.012-63.898-69.498-63.898c-36.496,0-66.527,28.168-69.51,63.898H127.37z"/>
		</g>
		<path style="fill:#9D9D9C;" d="M173.794,62.506c31.17,0,57.029,23.162,61.297,53.172h8.201
			c-2.971-35.729-33.012-63.898-69.498-63.898c-36.496,0-66.527,28.168-69.51,63.898h8.211
			C116.763,85.668,142.614,62.506,173.794,62.506z"/>
		<path style="fill:#00B1C3;" d="M289.866,266.181c0,6.289-5.086,11.394-11.383,11.394H69.104c-6.297,0-11.395-5.105-11.395-11.394
			V120.196c0-6.298,5.098-11.394,11.395-11.394h209.379c6.297,0,11.383,5.096,11.383,11.394V266.181z"/>
		<path style="fill:#FFFFFF;" d="M140.692,123.954c-2.279,8.9-2.854,17.879-1.693,27.011c1.434,11.206,4.561,23.001,9.879,33.013
			c4.318,8.142,10.566,15.171,18.367,20.125c17.816,11.321,39.748,11.108,59.951,8.115c10.779-1.596,21.807-3.831,31.609-8.811
			c6.627-3.35,12.656-7.732,17.98-12.89v-60.244c0-4.179-3.393-7.564-7.559-7.564H140.995
			C140.888,123.127,140.786,123.535,140.692,123.954z"/>
		<path style="fill:#C6C6C6;" d="M261.056,232.518c-14.625,6.824-30.748,10.183-46.65,12.401
			c-29.012,4.044-60.627,4.801-86.758-10.458c-11.098-6.477-20.727-15.395-27.66-26.262c-8.426-13.211-13.504-28.979-16.691-44.238
			c-3.432-16.283-4.57-33.521-0.525-49.813c0.445-1.783,0.873-3.563,1.301-5.346H69.104c-6.297,0-11.395,5.096-11.395,11.394
			v145.985c0,6.289,5.098,11.394,11.395,11.394h209.379c6.297,0,11.383-5.105,11.383-11.394v-53.625
			C281.374,220.652,271.718,227.539,261.056,232.518z"/>
		<path style="fill:#FFFFFF;" d="M228.546,194.168c0,30.244-24.518,54.758-54.752,54.758c-30.244,0-54.758-24.514-54.758-54.758
			c0-30.233,24.514-54.749,54.758-54.749C204.028,139.419,228.546,163.935,228.546,194.168z"/>
		<g>
			<path style="fill:#6EBEBF;" d="M215.181,194.177c0,22.859-18.527,41.387-41.387,41.387c-22.871,0-41.391-18.528-41.391-41.387
				c0-22.866,18.52-41.396,41.391-41.396C196.653,152.781,215.181,171.311,215.181,194.177z"/>
			<path style="fill:#DADADA;" d="M173.835,207.077c-15.65-10.672-25.037-32.203-19.4-49.476
				c-13.104,6.947-22.031,20.712-22.031,36.576c0,22.859,18.52,41.387,41.391,41.387c15.963,0,29.807-9.067,36.711-22.315
				C198.169,215.672,182.919,213.268,173.835,207.077z"/>
			<polygon style="fill:#FFFFFF;" points="195.941,182.302 179.728,182.302 179.728,165.315 167.851,165.315 167.851,182.302 
				151.648,182.302 151.648,194.168 167.851,194.168 167.851,223.03 179.728,223.03 179.728,194.168 195.941,194.168 			"/>
			<path style="fill:#FFFFFF;" d="M170.81,160.63c-10.877,12.941,1.584,35.668,17.672,38.261c7.75,1.238,13.764,0.48,18.631-1.881
				c0.309-1.755,0.486-3.555,0.486-5.39c0-17.379-14.084-31.472-31.461-31.472C174.308,160.148,172.546,160.345,170.81,160.63z"/>
		</g>
	</g>
	<g>
		
			<rect x="193.683" y="150.542" transform="matrix(0.1663 -0.9861 0.9861 0.1663 18.1964 448.1674)" style="fill:#C6C6C6;" width="160.901" height="125.563"/>
		<g>
			
				<rect x="200.546" y="144.779" transform="matrix(0.1663 -0.9861 0.9861 0.1663 29.6016 450.1297)" style="fill:#FFFFFF;" width="160.899" height="125.56"/>
			<g>
				
					<rect x="225.616" y="140.817" transform="matrix(0.1663 -0.9861 0.9861 0.1663 52.323 394.8413)" style="fill:#6EBEBF;" width="68.088" height="51.323"/>
				<g>
					<g>
						<path style="fill:#7A2A04;" d="M246.12,168.884c-0.057,0.348-0.678,17.366-0.678,17.366l20.357,2.733l5.43-14.562
							L246.12,168.884z"/>
						<g>
							<path style="fill:#F6BD91;" d="M270.784,164.313c0,0,2.072-2.084,3.279-0.852c0,0,0.695,0.989-0.227,3.018
								c-0.162,0.37-0.313,0.746-0.449,1.125c-0.105,0.292-0.209,0.596-0.277,0.901c-0.07,0.315-0.033,0.672-0.174,0.972
								c-0.287,0.62-0.719,1.266-1.356,1.557c-0.275,0.125-0.574,0.206-0.877,0.175c-0.127-0.013-1.082-0.281-1.059-0.42
								L270.784,164.313z"/>
							<path style="fill:#EBB58B;" d="M270.659,165.028c0,0,1.668-1.679,2.645-0.686c0,0,0.559,0.798-0.182,2.436
								c-0.133,0.294-0.254,0.598-0.367,0.902c-0.084,0.237-0.166,0.482-0.223,0.729c-0.055,0.253-0.027,0.54-0.139,0.783
								c-0.23,0.5-0.578,1.018-1.094,1.256c-0.219,0.101-0.459,0.162-0.705,0.141c-0.103-0.01-0.875-0.227-0.853-0.341
								L270.659,165.028z"/>
						</g>
						<g>
							<path style="fill:#F6BD91;" d="M247.669,160.643c0,0-1.273-2.647-2.82-1.878c0,0-0.979,0.705-0.775,2.926
								c0.035,0.401,0.053,0.805,0.059,1.208c0.006,0.312,0.004,0.634-0.033,0.944c-0.037,0.32-0.188,0.646-0.154,0.974
								c0.068,0.679,0.264,1.429,0.771,1.917c0.215,0.21,0.473,0.381,0.768,0.452c0.125,0.031,1.119,0.093,1.141-0.048
								L247.669,160.643z"/>
							<path style="fill:#EBB58B;" d="M247.556,161.363c0,0-1.029-2.135-2.273-1.515c0,0-0.791,0.569-0.629,2.358
								c0.029,0.323,0.045,0.65,0.049,0.973c0.004,0.254,0.002,0.514-0.029,0.761c-0.027,0.262-0.148,0.521-0.123,0.787
								c0.057,0.548,0.215,1.151,0.621,1.547c0.174,0.166,0.383,0.305,0.621,0.363c0.1,0.025,0.9,0.075,0.92-0.042L247.556,161.363z
								"/>
						</g>
						<path style="fill:#F6BD91;" d="M250.63,177.581c0,0,0.359,5.775-2.82,7.823l15.512,2.615c0,0-2.523-4.878-0.027-8.949
							L250.63,177.581z"/>
						<path style="fill:#E3B087;" d="M250.224,181.571c0.488,0.54,1.068,0.969,1.705,1.346c11.975,7.107,1.027,1.625,4.873,1.322
							c1.67-0.131,3.397-0.818,4.551-2.065c0.539-0.585,0.928-1.282,1.373-1.933c0.152-0.395,0.332-0.79,0.568-1.171l-12.664-1.489
							C250.63,177.581,250.747,179.535,250.224,181.571z"/>
						<path style="fill:#F6BD91;" d="M272.571,161.561c1.572-9.318-2.996-17.857-10.199-19.071
							c-7.207-1.216-14.322,5.353-15.893,14.672c-0.758,4.505-1.648,8.265-0.09,12.612c1.387,3.864,3.32,7.008,6.4,10.156
							c0,0,2.959,3.195,6.906,1.574c3.701-2.317,8.229-5.341,10.453-9.462C271.825,168.94,271.987,165.016,272.571,161.561z"/>
						<path style="fill:#F6BD91;" d="M274.982,192.627l-12.117-5.833l-6.512-1.575l0.004-0.017l-0.129-0.011l-0.125-0.032
							l-0.004,0.016l-6.664-0.647l-13.361,1.539c0,0-7.164,1.592-7.213,9.742l25.445,4.292l-0.447-0.078l25.445,4.293
							C281.228,196.482,274.982,192.627,274.982,192.627z"/>
						<g>
							
								<rect x="250.459" y="188.669" transform="matrix(0.1663 -0.9861 0.9861 0.1663 17.8943 414.2299)" style="fill:#6EBEBF;" width="6.902" height="15.729"/>
							<path style="fill:#FFFFFF;" d="M253.319,199.934c-10.916-6.829-4.961-15.281-4.961-15.281l-12.285,1.415
								c0,0-7.164,1.592-7.213,9.742l25.445,4.292l-0.447-0.078l25.445,4.293c1.924-7.833-4.322-11.688-4.322-11.688l-11.611-5.591
								C263.37,187.036,264.353,197.159,253.319,199.934z"/>
							<g>
								<g>
									<path style="fill:#DEDEDE;" d="M250.095,182.04c0,0-0.725,2.057-1.367,2.569c0,0-3.254,6.706,4.592,15.324
										c0,0-17.529-8.435-7.797-15.905C245.523,184.028,250.048,181.04,250.095,182.04z"/>
								</g>
								<g>
									<g>
										<g>
											<path style="fill:#C2C2C2;" d="M253.319,199.934c-1.672-0.745-3.278-1.646-4.797-2.681
												c-1.524-1.024-2.962-2.208-4.166-3.629c-0.302-0.354-0.577-0.731-0.843-1.118c-0.248-0.398-0.486-0.805-0.676-1.241
												c-0.37-0.869-0.572-1.838-0.469-2.797c0.051-0.476,0.162-0.952,0.355-1.388c0.078-0.227,0.184-0.439,0.313-0.641
												c0.121-0.203,0.225-0.419,0.381-0.598l0.438-0.555l0.498-0.495c0.324-0.337,0.713-0.597,1.065-0.898l0.004-0.003
												l0.006-0.004c0.748-0.462,1.501-0.91,2.286-1.302c0.393-0.196,0.789-0.386,1.2-0.545
												c0.206-0.078,0.414-0.153,0.633-0.194c0.108-0.02,0.22-0.034,0.333-0.021c0.112,0.007,0.226,0.099,0.214,0.217
												c-0.002-0.12-0.112-0.188-0.218-0.186c-0.105-0.002-0.212,0.021-0.314,0.051c-0.207,0.062-0.406,0.147-0.604,0.238
												c-0.393,0.184-0.771,0.399-1.145,0.621c-0.744,0.451-1.482,0.916-2.198,1.407l0.01-0.007
												c-0.329,0.308-0.696,0.576-0.991,0.912l-0.455,0.492l-0.395,0.534c-0.145,0.17-0.236,0.372-0.347,0.561
												c-0.116,0.188-0.212,0.384-0.278,0.592c-0.172,0.401-0.265,0.831-0.304,1.26c-0.081,0.863,0.11,1.738,0.466,2.541
												c0.174,0.405,0.39,0.792,0.621,1.173c0.246,0.372,0.504,0.736,0.791,1.082c0.57,0.693,1.209,1.334,1.883,1.938
												c0.674,0.604,1.377,1.179,2.107,1.721C250.189,198.046,251.724,199.039,253.319,199.934z"/>
										</g>
									</g>
								</g>
							</g>
							<g>
								<g>
									<path style="fill:#DEDEDE;" d="M262.353,184.108c0,0,0.01,2.18,0.451,2.876c0,0,0.873,7.401-9.361,12.97
										c0,0,19.324-2.221,12.578-12.47C266.021,187.483,262.728,183.181,262.353,184.108z"/>
								</g>
								<g>
									<g>
										<g>
											<path style="fill:#C2C2C2;" d="M253.442,199.953c1.801-0.322,3.575-0.757,5.313-1.294
												c0.867-0.273,1.721-0.585,2.556-0.935c0.834-0.349,1.646-0.746,2.413-1.214c0.384-0.232,0.747-0.493,1.103-0.763
												c0.343-0.283,0.674-0.579,0.971-0.905c0.598-0.642,1.066-1.405,1.272-2.248c0.104-0.418,0.157-0.855,0.126-1.29
												c0.005-0.219-0.022-0.436-0.069-0.651c-0.042-0.215-0.063-0.436-0.143-0.644l-0.197-0.634l-0.269-0.613
												c-0.169-0.415-0.429-0.788-0.638-1.186l0.006,0.01c-0.516-0.698-1.06-1.379-1.614-2.049
												c-0.28-0.332-0.567-0.659-0.878-0.961c-0.156-0.15-0.317-0.296-0.492-0.422c-0.088-0.063-0.18-0.118-0.281-0.151
												c-0.099-0.036-0.225-0.007-0.267,0.104c0.028-0.115,0.165-0.164,0.274-0.134c0.109,0.025,0.211,0.074,0.307,0.129
												c0.193,0.111,0.365,0.25,0.534,0.391c0.337,0.284,0.648,0.594,0.954,0.908c0.615,0.628,1.18,1.297,1.734,1.979
												l0.004,0.005l0.002,0.005c0.234,0.399,0.517,0.772,0.713,1.197l0.309,0.631l0.232,0.667
												c0.087,0.22,0.115,0.458,0.164,0.69c0.054,0.231,0.085,0.467,0.085,0.708c0.039,0.475-0.012,0.961-0.119,1.427
												c-0.217,0.94-0.725,1.79-1.359,2.49c-0.322,0.35-0.68,0.656-1.045,0.951c-0.377,0.278-0.761,0.545-1.162,0.78
												c-1.604,0.948-3.35,1.595-5.125,2.063C257.078,199.473,255.266,199.797,253.442,199.953z"/>
										</g>
									</g>
								</g>
							</g>
						</g>
						<path style="fill:#CA4416;" d="M274.69,158.284v0.001c0.334-4.341-0.535-12.52-10.914-16.105l0,0
							c-0.668-0.28-1.244-0.368-1.244-0.368c-12.416-0.603-16.203,9.866-17.281,14.641c-5.07,13.144-3.723,24.331-3.723,24.331
							c-0.457,5.202,8.834,7.156,8.834,7.156c-7.857-7.225,0.131-28.703,1.066-31.121c4.676-2.048,8.697-5.109,10.91-6.971
							c0.041,0.063,0.072,0.129,0.111,0.192c0,0,1.17,7.834,6.031,10.494l-0.006,0.001c0,0,1.191,25.488-9.189,29.993
							c0,0,9.416,1.201,10.695-3.864C269.982,186.665,275.456,172.894,274.69,158.284z"/>
						<path style="fill:#DADADA;" d="M274.69,158.285c0.334-4.341-0.535-12.52-10.918-16.105c-0.664-0.28-1.24-0.368-1.24-0.368
							c-12.416-0.603-16.203,9.866-17.281,14.641c-5.07,13.144-3.723,24.331-3.723,24.331c-0.266,3.045,2.803,4.977,5.398,6.055
							c-0.896-0.372-1.869-3.221-2.176-4.078c-1.26-3.531-0.789-7.327-0.08-10.921c1.32-6.696,2.486-13.806,6.316-19.611
							c2.086-3.165,6.676-7.044,10.699-7.064c0.072,0,0.139,0.003,0.209,0.007c0.039,0.001,0.078,0.003,0.121,0.006
							c0.057,0.003,0.113,0.014,0.17,0.02c0.057,0.008,0.111,0.016,0.17,0.032c0.043,0.006,0.086,0.015,0.125,0.024
							c0.102,0.026,0.199,0.055,0.295,0.093c0.088,0.033,0.178,0.079,0.266,0.129c0.029,0.017,0.057,0.037,0.084,0.056
							c0.061,0.037,0.119,0.074,0.178,0.119c0.031,0.023,0.063,0.05,0.09,0.075c0.055,0.046,0.111,0.091,0.164,0.143
							c0.031,0.026,0.059,0.056,0.086,0.086c0.055,0.053,0.109,0.108,0.164,0.167c0.025,0.028,0.051,0.058,0.076,0.089
							c0.057,0.063,0.108,0.129,0.164,0.197c0.021,0.026,0.041,0.055,0.06,0.081c0.059,0.078,0.119,0.157,0.176,0.238
							c0.014,0.021,0.031,0.042,0.045,0.065c0.064,0.091,0.125,0.185,0.186,0.281c0.01,0.012,0.014,0.023,0.023,0.035
							c0.066,0.111,0.135,0.222,0.197,0.335c0.451,0.78,0.803,1.608,1.027,2.191c0.705,1.845,1.096,3.848,2.088,5.571
							c0.504,0.876,1.149,1.639,1.992,2.202c0.967,0.646,2.201,0.787,3.127,1.499c0.082,0.061,0.158,0.129,0.229,0.198
							c0.004,0.003,0.01,0.007,0.014,0.008c0.066,0.07,0.131,0.141,0.193,0.217c0.004,0.009,0.012,0.017,0.021,0.027
							c0.055,0.071,0.105,0.149,0.152,0.229c0.012,0.017,0.023,0.032,0.033,0.048c0.055,0.101,0.109,0.205,0.152,0.317
							c0.037,0.095,0.063,0.194,0.08,0.297c0.008,0.058,0.01,0.121,0.012,0.182c0.004,0.043,0.01,0.086,0.008,0.129
							c0,0.089-0.008,0.179-0.018,0.271c-0.002,0.017-0.002,0.033-0.002,0.05c-0.016,0.106-0.035,0.215-0.059,0.323
							c-0.109,0.492-0.297,0.979-0.428,1.36c-2.656,7.589-1.256,16.089-5.715,23.138c-1.002,1.583-2.492,3.066-4.182,3.925
							c-0.889,0.452-1.811,0.777-2.752,1.008c2.684,0.106,8.305-0.139,9.272-3.97C269.982,186.665,275.456,172.894,274.69,158.285z"
							/>
					</g>
					<path style="fill:#FFFFFF;" d="M271.597,139.253l-7.125-1.202l-0.527-0.09l-7.125-1.201l-6.16,5.211l2.115,8.164
						c0,0,2.33-2.645,9.371-1.502v0.002c0.09,0.013,0.174,0.029,0.266,0.043c0.086,0.015,0.172,0.028,0.264,0.046v-0.003
						c7.021,1.23,8.355,4.493,8.355,4.493l4.676-7.019L271.597,139.253z"/>
					<path style="fill:#FFFFFF;" d="M271.597,139.253l-7.125-1.202l-0.527-0.09l-7.125-1.201l-6.16,5.211l2.115,8.164
						c0,0,2.33-2.645,9.371-1.502v0.002c0.09,0.013,0.174,0.029,0.266,0.043c0.086,0.015,0.172,0.028,0.264,0.046v-0.003
						c7.021,1.23,8.355,4.493,8.355,4.493l4.676-7.019L271.597,139.253z"/>
					<path style="fill:none;stroke:#C6C6C6;stroke-width:0.5169;stroke-miterlimit:10;" d="M270.81,140.214l-7.08-1.194
						l-0.449-0.076l-6.07-1.022l-5.262,4.51l1.615,5.936c0,0,2.736-1.648,8.734-0.674v0.003c0.078,0.01,0.148,0.024,0.227,0.036
						c0.074,0.015,0.146,0.023,0.225,0.04v-0.003c5.986,1.046,7.723,3.183,7.723,3.183l3.818-4.997L270.81,140.214z"/>
					<g>
						<path style="fill:#6EBEBF;" d="M267.249,144.025c-0.369,2.198-2.453,3.679-4.647,3.309c-2.195-0.371-3.678-2.453-3.307-4.649
							c0.371-2.196,2.451-3.677,4.647-3.306C266.136,139.749,267.618,141.831,267.249,144.025z"/>
						<path style="fill:#DADADA;" d="M263.067,144.595c-1.33-1.277-1.885-3.499-1.063-5.066c-1.371,0.456-2.451,1.633-2.709,3.157
							c-0.371,2.196,1.111,4.278,3.307,4.649c1.533,0.257,3.01-0.389,3.887-1.55C265.269,145.817,263.841,145.34,263.067,144.595z"
							/>
						<polygon style="fill:#FFFFFF;" points="265.593,142.574 264.032,142.313 264.308,140.679 263.169,140.487 262.894,142.121 
							261.339,141.857 261.144,142.997 262.7,143.258 262.235,146.033 263.374,146.225 263.843,143.452 265.4,143.715 						"/>
						<path style="fill:#FFFFFF;" d="M263.53,140.085c-1.256,1.068-0.426,3.453,1.076,3.961c0.727,0.246,1.314,0.27,1.82,0.122
							c0.057-0.163,0.105-0.332,0.135-0.509c0.283-1.669-0.842-3.253-2.514-3.533C263.874,140.097,263.702,140.086,263.53,140.085z"
							/>
					</g>
				</g>
			</g>
			<g>
				
					<rect x="318.91" y="119.21" transform="matrix(0.1663 -0.9861 0.9861 0.1663 125.1752 437.1947)" style="fill:#C6C6C6;" width="4.443" height="50.725"/>
				
					<rect x="317.378" y="128.293" transform="matrix(0.1663 -0.9861 0.9861 0.1663 114.9369 443.2522)" style="fill:#C6C6C6;" width="4.443" height="50.724"/>
				
					<rect x="315.848" y="137.375" transform="matrix(0.1663 -0.9861 0.9861 0.1663 104.7058 449.3153)" style="fill:#C6C6C6;" width="4.44" height="50.725"/>
				
					<rect x="314.315" y="146.457" transform="matrix(0.1663 -0.9861 0.9861 0.1663 94.4797 455.3825)" style="fill:#C6C6C6;" width="4.443" height="50.725"/>
				
					<rect x="312.784" y="155.541" transform="matrix(0.1663 -0.9861 0.9861 0.1663 84.2446 461.4438)" style="fill:#C6C6C6;" width="4.443" height="50.723"/>
				
					<rect x="311.252" y="164.623" transform="matrix(0.1663 -0.9861 0.9861 0.1663 74.0116 467.5063)" style="fill:#C6C6C6;" width="4.442" height="50.725"/>
				
					<rect x="309.72" y="173.705" transform="matrix(0.1663 -0.9861 0.9861 0.1663 63.7738 473.5646)" style="fill:#C6C6C6;" width="4.444" height="50.726"/>
				
					<rect x="308.189" y="182.789" transform="matrix(0.1663 -0.9861 0.9861 0.1663 53.547 479.6336)" style="fill:#C6C6C6;" width="4.442" height="50.725"/>
			</g>
			<g>
				
					<rect x="278.593" y="158.564" transform="matrix(0.1663 -0.9861 0.9861 0.1663 24.6759 453.9901)" style="fill:#C6C6C6;" width="4.442" height="107.678"/>
				
					<rect x="277.061" y="167.645" transform="matrix(0.1663 -0.9861 0.9861 0.1663 14.4429 460.0519)" style="fill:#C6C6C6;" width="4.444" height="107.679"/>
				
					<rect x="275.53" y="176.728" transform="matrix(0.1663 -0.9861 0.9861 0.1663 4.2089 466.1131)" style="fill:#C6C6C6;" width="4.442" height="107.679"/>
				
					<rect x="273.999" y="185.811" transform="matrix(0.1663 -0.9861 0.9861 0.1663 -6.0245 472.1748)" style="fill:#C6C6C6;" width="4.442" height="107.678"/>
				
					<rect x="272.467" y="194.894" transform="matrix(0.1663 -0.9861 0.9861 0.1663 -16.2601 478.2342)" style="fill:#C6C6C6;" width="4.442" height="107.678"/>
				
					<rect x="270.937" y="203.977" transform="matrix(0.1663 -0.9861 0.9861 0.1663 -26.4955 484.2924)" style="fill:#C6C6C6;" width="4.44" height="107.676"/>
				
					<rect x="269.404" y="213.059" transform="matrix(0.1663 -0.9861 0.9861 0.1663 -36.7221 490.3629)" style="fill:#C6C6C6;" width="4.441" height="107.678"/>
				
					<rect x="267.871" y="222.143" transform="matrix(0.1663 -0.9861 0.9861 0.1663 -46.955 496.4266)" style="fill:#C6C6C6;" width="4.445" height="107.677"/>
			</g>
		</g>
	</g>
	<g>
		
			<rect x="226.858" y="174.749" transform="matrix(0.5989 -0.8008 0.8008 0.5989 -66.9621 341.3608)" style="fill:#C6C6C6;" width="160.9" height="125.563"/>
		<g>
			
				<rect x="234.364" y="173.589" transform="matrix(0.5989 -0.8008 0.8008 0.5989 -63.0231 346.9041)" style="fill:#FFFFFF;" width="160.901" height="125.562"/>
			<g>
				
					<rect x="280.592" y="164.418" transform="matrix(0.5989 -0.8008 0.8008 0.5989 -26.0269 328.192)" style="fill:#00B1C3;" width="68.087" height="51.323"/>
				<g>
					<g>
						<path style="fill:#F6BD91;" d="M325.288,193.699c0,0,2.787-0.902,3.299,0.742c0,0,0.162,1.194-1.58,2.577
							c-0.313,0.251-0.613,0.517-0.912,0.792c-0.225,0.21-0.457,0.436-0.656,0.672c-0.209,0.249-0.34,0.581-0.598,0.784
							c-0.541,0.419-1.217,0.793-1.918,0.763c-0.299-0.013-0.6-0.081-0.855-0.244c-0.109-0.069-0.836-0.745-0.75-0.859
							L325.288,193.699z"/>
						<path style="fill:#EBB58B;" d="M324.847,194.277c0,0,2.25-0.729,2.664,0.599c0,0,0.129,0.962-1.273,2.079
							c-0.258,0.2-0.5,0.415-0.738,0.636c-0.182,0.171-0.369,0.351-0.529,0.544c-0.168,0.2-0.273,0.469-0.482,0.634
							c-0.432,0.335-0.98,0.636-1.543,0.613c-0.244-0.011-0.486-0.064-0.693-0.197c-0.088-0.055-0.674-0.601-0.605-0.692
							L324.847,194.277z"/>
					</g>
					<g>
						<path style="fill:#F6BD91;" d="M307.552,180.435c0,0,0.078-2.93-1.645-2.955c0,0-1.191,0.181-2.025,2.243
							c-0.152,0.372-0.318,0.737-0.5,1.101c-0.139,0.275-0.289,0.562-0.461,0.82c-0.18,0.268-0.461,0.487-0.58,0.793
							c-0.254,0.636-0.422,1.392-0.191,2.054c0.096,0.287,0.244,0.554,0.475,0.754c0.096,0.083,0.951,0.589,1.035,0.477
							L307.552,180.435z"/>
						<path style="fill:#EBB58B;" d="M307.122,181.021c0,0,0.061-2.364-1.328-2.384c0,0-0.961,0.146-1.633,1.809
							c-0.121,0.299-0.258,0.596-0.4,0.886c-0.113,0.224-0.234,0.454-0.373,0.662c-0.145,0.217-0.373,0.393-0.473,0.642
							c-0.197,0.51-0.334,1.12-0.15,1.653c0.078,0.232,0.199,0.449,0.383,0.609c0.078,0.068,0.768,0.477,0.836,0.384
							L307.122,181.021z"/>
					</g>
					<path style="fill:#F6BD91;" d="M302.124,196.339c0,0-2.318,5.292-6.076,5.658l12.576,9.404c0,0-0.014-5.482,4.06-7.96
						L302.124,196.339z"/>
					<path style="fill:#E3B087;" d="M299.94,199.697c0.188,0.699,0.506,1.347,0.9,1.976c0.916,1.462,2.103,2.721,3.719,3.397
						c1.545,0.647,3.391,0.825,4.986,0.244c0.744-0.272,1.406-0.712,2.102-1.09c0.316-0.28,0.654-0.548,1.037-0.782l-10.56-7.102
						C302.124,196.339,301.335,198.128,299.94,199.697z"/>
					<path style="fill:#F6BD91;" d="M328.894,191.813c6.871-7.335,5.789-16.713-0.428-21.362
						c-6.217-4.651-14.797-2.982-20.379,6.336c-2.344,3.911-7.67,10.07-6.928,15.441c0.539,3.884,0.252,2.332,1.732,6.673
						c0,0,1.344,4.32,5.773,4.818c3.813,0.033,7.348,1.332,11.221-1.597C322.712,199.983,326.503,194.363,328.894,191.813z"/>
					<path style="fill:#F6BD91;" d="M316.546,220.552l-8.094-10.712l-5.059-4.371l0.01-0.015l-0.109-0.068l-0.096-0.084
						l-0.012,0.015l-5.621-3.619l-12.563-4.737c0,0-7.086-1.858-11.42,4.927l20.629,15.43l0.205,0.15l20.629,15.429
						C320.331,226.823,316.546,220.552,316.546,220.552z"/>
					<g>
						<path style="fill:#432918;" d="M318.763,171.626c0,0-7.332,0.785-11.877,7.029c0,0,4.102-13.629,14.986-13.136
							C321.872,165.52,318.489,170.76,318.763,171.626z"/>
						<path style="fill:#432918;" d="M311.831,174.152c0,0-5.728,6.885-7.75,12.182l-0.969-1.729l4.416-7.074
							C307.528,177.531,310.3,174.003,311.831,174.152z"/>
						<path style="fill:#432918;" d="M331.056,186.165c0,0-5.935,9.096-10.447,12.53l1.938,0.444l5.533-6.236
							C328.079,192.902,331.632,187.591,331.056,186.165z"/>
					</g>
					<path style="fill:#6EBEBF;" d="M308.743,210.058l7.803,10.494c0,0,3.785,6.271-1.5,12.345l-20.629-15.429l-0.205-0.15
						l-20.629-15.43c4.334-6.786,11.426-4.925,11.426-4.925l12.561,4.737l3.691,6.441L308.743,210.058z"/>
					<path style="fill:#432918;" d="M319.169,170.206c0,0-3.533,3.307,9.959,11.254c0,0,2.463,3.009,1.438,6.018l-3.428,6.105
						c0,0,10.195-5.492,10.457-15.503c0,0-0.518-4.192-6.186-9.173c0,0-5.445-5.266-12.393-3.147L319.169,170.206z"/>
					<polygon style="fill:#E6332A;" points="298.665,206.262 303.794,210.098 298.54,213.962 296.354,212.327 					"/>
					<polygon style="fill:#B02B1E;" points="296.882,219.313 298.946,213.42 296.761,211.785 292.021,215.678 					"/>
					<path style="fill:#FFFFFF;" d="M311.202,213.102l5.344,7.449c0,0,3.785,6.271-1.5,12.345l-20.629-15.429l-0.205-0.15
						l-20.629-15.43c4.334-6.786,11.426-4.925,11.426-4.925l8.494,3.254l-3.559,13.906l4.473,3.346l4.283,3.205L311.202,213.102z"/>
					<g>
						<polygon style="fill:#B2B2B2;" points="298.183,201.613 301.229,208.182 292.388,209.361 293.503,200.216 						"/>
						<polygon style="fill:#6EBEBF;" points="298.759,200.839 301.229,208.182 292.966,208.584 293.503,200.216 						"/>
					</g>
					<g>
						<polygon style="fill:#B2B2B2;" points="308.374,209.237 301.214,208.168 302.579,216.982 311.034,213.328 						"/>
						<polygon style="fill:#6EBEBF;" points="308.952,208.461 301.214,208.168 303.159,216.208 311.034,213.328 						"/>
					</g>
					<polygon style="fill:#CECECE;" points="293.503,200.216 289.944,214.122 287.751,212.483 287.513,197.923 					"/>
					<polygon style="fill:#CECECE;" points="311.202,213.102 298.7,220.673 300.896,222.314 314.931,218.427 					"/>
				</g>
			</g>
			<g>
				
					<rect x="377.096" y="173.355" transform="matrix(0.5989 -0.8008 0.8008 0.5989 -6.9966 383.4639)" style="fill:#C6C6C6;" width="4.442" height="50.724"/>
				
					<rect x="371.58" y="180.73" transform="matrix(0.5989 -0.8008 0.8008 0.5989 -15.1206 381.9931)" style="fill:#C6C6C6;" width="4.442" height="50.725"/>
				
					<rect x="366.061" y="188.107" transform="matrix(0.5989 -0.8008 0.8008 0.5989 -23.2381 380.539)" style="fill:#C6C6C6;" width="4.445" height="50.724"/>
				
					<rect x="360.547" y="195.481" transform="matrix(0.5989 -0.8008 0.8008 0.5989 -31.3517 379.0922)" style="fill:#C6C6C6;" width="4.442" height="50.725"/>
				
					<rect x="355.03" y="202.859" transform="matrix(0.5989 -0.8008 0.8008 0.5989 -39.4765 377.6214)" style="fill:#C6C6C6;" width="4.442" height="50.725"/>
				
					<rect x="349.513" y="210.236" transform="matrix(0.5989 -0.8008 0.8008 0.5989 -47.5936 376.1708)" style="fill:#C6C6C6;" width="4.443" height="50.724"/>
				
					<rect x="343.997" y="217.611" transform="matrix(0.5989 -0.8008 0.8008 0.5989 -55.7125 374.7116)" style="fill:#C6C6C6;" width="4.441" height="50.724"/>
				
					<rect x="338.479" y="224.988" transform="matrix(0.5989 -0.8008 0.8008 0.5989 -63.8355 373.2428)" style="fill:#C6C6C6;" width="4.442" height="50.725"/>
			</g>
			<g>
				
					<rect x="310.218" y="186.755" transform="matrix(0.5989 -0.8008 0.8008 0.5989 -67.3546 346.7088)" style="fill:#C6C6C6;" width="4.441" height="107.678"/>
				
					<rect x="304.701" y="194.13" transform="matrix(0.5989 -0.8008 0.8008 0.5989 -75.4727 345.2536)" style="fill:#C6C6C6;" width="4.44" height="107.679"/>
				
					<rect x="299.185" y="201.508" transform="matrix(0.5989 -0.8008 0.8008 0.5989 -83.596 343.7799)" style="fill:#C6C6C6;" width="4.443" height="107.676"/>
				
					<rect x="293.668" y="208.884" transform="matrix(0.5989 -0.8008 0.8008 0.5989 -91.7153 342.3216)" style="fill:#C6C6C6;" width="4.441" height="107.677"/>
				
					<rect x="288.149" y="216.259" transform="matrix(0.5989 -0.8008 0.8008 0.5989 -99.8352 340.862)" style="fill:#C6C6C6;" width="4.444" height="107.678"/>
				
					<rect x="282.633" y="223.636" transform="matrix(0.5989 -0.8008 0.8008 0.5989 -107.9545 339.4034)" style="fill:#C6C6C6;" width="4.443" height="107.676"/>
				
					<rect x="277.117" y="231.012" transform="matrix(0.5989 -0.8008 0.8008 0.5989 -116.0738 337.9458)" style="fill:#C6C6C6;" width="4.442" height="107.677"/>
				
					<rect x="271.601" y="238.388" transform="matrix(0.5989 -0.8008 0.8008 0.5989 -124.194 336.4775)" style="fill:#C6C6C6;" width="4.441" height="107.676"/>
			</g>
		</g>
	</g>
	<g>
		<path style="fill:#B2B2B2;" d="M153.792,315.325c0,6.022-29.221,10.905-65.266,10.905c-36.047,0-65.266-4.883-65.266-10.905
			c0-6.021,29.219-10.904,65.266-10.904C124.571,304.421,153.792,309.304,153.792,315.325z"/>
		<g>
			<g>
				<path style="fill:#122E39;" d="M132.509,310.326c0,2.617-2.121,4.739-4.736,4.739h-78.49c-2.617,0-4.74-2.122-4.74-4.739
					V168.949c0-2.618,2.123-4.739,4.74-4.739h78.49c2.615,0,4.736,2.122,4.736,4.739V310.326z"/>
				<rect x="50.468" y="175.561" style="fill:#00B1C3;" width="76.119" height="123.118"/>
				<rect x="54.063" y="199.082" style="fill:#576170;" width="69.35" height="93.169"/>
				<rect x="50.468" y="175.561" style="opacity:0.3;fill:#FFFFFF;" width="76.119" height="12.291"/>
				<polygon style="fill:#C6C6C6;" points="50.468,175.561 50.468,298.679 126.587,298.679 				"/>
				<path style="fill:#FFFFFF;" d="M99.632,169.193c0,0.899-0.729,1.629-1.627,1.629H79.048c-0.898,0-1.627-0.73-1.627-1.629l0,0
					c0-0.9,0.729-1.629,1.627-1.629h18.957C98.903,167.564,99.632,168.293,99.632,169.193L99.632,169.193z"/>
				<path style="fill:#FFFFFF;" d="M100.522,306.476c0,1.471-1.193,2.665-2.664,2.665H79.196c-1.473,0-2.666-1.194-2.666-2.665l0,0
					c0-1.474,1.193-2.667,2.666-2.667h18.662C99.329,303.81,100.522,305.002,100.522,306.476L100.522,306.476z"/>
				<g>
					<path style="fill:#FFFFFF;" d="M67.792,306.476c0,2.044-1.658,3.702-3.701,3.702c-2.043,0-3.703-1.658-3.703-3.702
						c0-2.045,1.66-3.703,3.703-3.703C66.134,302.773,67.792,304.431,67.792,306.476z"/>
					<path style="fill:#FFFFFF;" d="M116.663,306.476c0,2.044-1.658,3.702-3.701,3.702c-2.045,0-3.701-1.658-3.701-3.702
						c0-2.045,1.656-3.703,3.701-3.703C115.005,302.773,116.663,304.431,116.663,306.476z"/>
				</g>
				<g>
					<path style="fill:#FFFFFF;" d="M98.77,182.553c0,1.551-0.575,2.407-1.586,2.407c-0.892,0-1.495-0.835-1.509-2.344
						c0-1.53,0.659-2.373,1.586-2.373C98.223,180.243,98.77,181.1,98.77,182.553z M96.292,182.623c0,1.186,0.365,1.86,0.927,1.86
						c0.632,0,0.934-0.737,0.934-1.902c0-1.123-0.288-1.86-0.927-1.86C96.686,180.721,96.292,181.38,96.292,182.623z"/>
					<path style="fill:#FFFFFF;" d="M99.283,183.725c0-0.576,0.344-0.982,0.905-1.221l-0.007-0.021
						c-0.506-0.239-0.723-0.632-0.723-1.025c0-0.723,0.61-1.214,1.41-1.214c0.885,0,1.327,0.555,1.327,1.123
						c0,0.386-0.189,0.8-0.751,1.067v0.021c0.568,0.225,0.919,0.625,0.919,1.179c0,0.794-0.681,1.327-1.551,1.327
						C99.858,184.96,99.283,184.392,99.283,183.725z M101.74,183.697c0-0.555-0.387-0.821-1.004-0.997
						c-0.534,0.155-0.821,0.505-0.821,0.941c-0.021,0.463,0.33,0.87,0.912,0.87C101.382,184.511,101.74,184.167,101.74,183.697z
						 M100.041,181.415c0,0.456,0.344,0.702,0.87,0.842c0.394-0.133,0.695-0.414,0.695-0.828c0-0.365-0.218-0.744-0.772-0.744
						C100.322,180.686,100.041,181.023,100.041,181.415z"/>
					<path style="fill:#FFFFFF;" d="M102.99,182.047c0-0.259,0.175-0.442,0.421-0.442s0.407,0.183,0.414,0.442
						c0,0.246-0.161,0.436-0.421,0.436C103.158,182.482,102.99,182.293,102.99,182.047z M102.99,184.525
						c0-0.26,0.175-0.442,0.421-0.442s0.407,0.183,0.414,0.442c0,0.246-0.161,0.435-0.421,0.435
						C103.158,184.96,102.99,184.77,102.99,184.525z"/>
					<path style="fill:#FFFFFF;" d="M107.426,182.553c0,1.551-0.575,2.407-1.586,2.407c-0.892,0-1.495-0.835-1.509-2.344
						c0-1.53,0.659-2.373,1.586-2.373C106.879,180.243,107.426,181.1,107.426,182.553z M104.948,182.623
						c0,1.186,0.365,1.86,0.927,1.86c0.632,0,0.934-0.737,0.934-1.902c0-1.123-0.288-1.86-0.927-1.86
						C105.342,180.721,104.948,181.38,104.948,182.623z"/>
					<path style="fill:#FFFFFF;" d="M111.026,182.553c0,1.551-0.575,2.407-1.586,2.407c-0.892,0-1.495-0.835-1.509-2.344
						c0-1.53,0.659-2.373,1.586-2.373C110.479,180.243,111.026,181.1,111.026,182.553z M108.549,182.623
						c0,1.186,0.365,1.86,0.927,1.86c0.632,0,0.934-0.737,0.934-1.902c0-1.123-0.288-1.86-0.927-1.86
						C108.942,180.721,108.549,181.38,108.549,182.623z"/>
					<path style="fill:#FFFFFF;" d="M111.813,180.208c0.295-0.049,0.681-0.091,1.173-0.091c0.604,0,1.046,0.141,1.326,0.393
						c0.26,0.225,0.414,0.569,0.414,0.99c0,0.428-0.126,0.765-0.365,1.011c-0.322,0.344-0.849,0.52-1.445,0.52
						c-0.183,0-0.352-0.007-0.491-0.042v1.895h-0.611V180.208z M112.425,182.489c0.133,0.035,0.302,0.049,0.505,0.049
						c0.737,0,1.187-0.358,1.187-1.011c0-0.625-0.442-0.927-1.116-0.927c-0.267,0-0.471,0.021-0.575,0.049V182.489z"/>
					<path style="fill:#FFFFFF;" d="M115.416,182.405c0-0.351-0.007-0.639-0.028-0.92h0.54l0.028,0.548h0.021
						c0.189-0.323,0.505-0.625,1.066-0.625c0.464,0,0.814,0.281,0.962,0.681h0.014c0.105-0.189,0.239-0.337,0.379-0.442
						c0.204-0.154,0.429-0.239,0.751-0.239c0.449,0,1.116,0.295,1.116,1.474v2.001h-0.604v-1.923c0-0.653-0.238-1.046-0.737-1.046
						c-0.351,0-0.624,0.26-0.729,0.561c-0.028,0.085-0.049,0.197-0.049,0.309v2.099h-0.604v-2.036c0-0.541-0.238-0.934-0.708-0.934
						c-0.387,0-0.667,0.309-0.766,0.618c-0.035,0.091-0.049,0.197-0.049,0.302v2.05h-0.604V182.405z"/>
				</g>
				<g>
					<path style="fill:#FFFFFF;" d="M68.894,180.896H68.88l-0.793,0.428l-0.119-0.47l0.996-0.534h0.526v4.563h-0.597V180.896z"/>
					<path style="fill:#FFFFFF;" d="M73.878,180.84h-1.74l-0.176,1.172c0.105-0.014,0.203-0.028,0.372-0.028
						c0.351,0,0.702,0.077,0.982,0.246c0.358,0.204,0.653,0.597,0.653,1.172c0,0.891-0.709,1.558-1.699,1.558
						c-0.498,0-0.919-0.14-1.137-0.281l0.154-0.47c0.189,0.112,0.562,0.253,0.976,0.253c0.583,0,1.081-0.379,1.081-0.99
						c-0.007-0.59-0.4-1.011-1.313-1.011c-0.26,0-0.463,0.028-0.632,0.049l0.295-2.19h2.183V180.84z"/>
					<path style="fill:#FFFFFF;" d="M77.788,182.553c0,1.551-0.575,2.407-1.586,2.407c-0.892,0-1.495-0.835-1.509-2.344
						c0-1.53,0.659-2.373,1.586-2.373C77.241,180.243,77.788,181.1,77.788,182.553z M75.311,182.623c0,1.186,0.365,1.86,0.927,1.86
						c0.632,0,0.934-0.737,0.934-1.902c0-1.123-0.288-1.86-0.927-1.86C75.704,180.721,75.311,181.38,75.311,182.623z"/>
				</g>
				<g>
					<g>
						<path style="fill:#D42A26;" d="M63.243,177.531c-1.99-0.399-2.736,1.355-2.865,1.709c-0.127-0.354-0.873-2.108-2.867-1.709
							c-1.367,0.273-1.859,1.746-1.57,2.979c0.102,0.424,0.252,0.892,0.453,1.277c0,0,1.533,2.901,3.984,4.152
							c2.453-1.251,3.984-4.152,3.984-4.152c0.203-0.385,0.354-0.854,0.453-1.277C65.106,179.277,64.614,177.804,63.243,177.531z"/>
						<path style="fill:#C6C6C6;" d="M63.772,177.715c0.252,0.432,0.398,0.899,0.426,1.399c0.084,1.423-0.408,3.134-1.666,3.945
							c-0.893,0.575-2.01,0.606-2.916,0.051c-0.473-0.289-1.094-0.791-1.375-1.275c-0.336-0.575-0.73-1.562-0.688-2.241
							c0.035-0.565,0.359-1.426,0.814-1.795c0.117-0.095,0.244-0.171,0.373-0.232c-0.344-0.104-0.75-0.132-1.23-0.037
							c-1.367,0.273-1.859,1.746-1.57,2.979c0.102,0.424,0.252,0.892,0.453,1.277c0,0,1.533,2.901,3.984,4.152
							c2.453-1.251,3.984-4.152,3.984-4.152c0.203-0.385,0.354-0.854,0.453-1.277C65.063,179.452,64.737,178.218,63.772,177.715z"/>
					</g>
					<polyline style="fill:none;stroke:#FFFFFF;stroke-width:0.4426;stroke-miterlimit:10;" points="54.604,180.855 59.204,180.855 
						59.679,182.752 60.378,179.575 60.958,184.079 62.048,180.759 66.173,180.759 					"/>
				</g>
				<g>
					<path style="fill:#FFFFFF;" d="M89.106,263.328c-9.303,0.007-18.176-3.624-25.104-9.456c-3.359-2.783-6.271-6.073-8.75-9.629
						l-0.248,0.351c2.48,3.607,5.395,6.951,8.771,9.786c6.965,5.94,15.922,9.667,25.33,9.652c9.406,0.015,18.365-3.712,25.332-9.652
						c3.047-2.559,5.719-5.532,8.033-8.739l-0.248-0.356c-2.316,3.157-4.98,6.08-8.01,8.589
						C107.282,259.704,98.411,263.336,89.106,263.328z"/>
					<path style="fill:#FFFFFF;" d="M89.106,260.902c-7.563,0.003-14.775-2.476-20.682-6.46c-4.861-3.24-8.848-7.485-11.967-11.915
						l-0.201,0.286c3.101,4.512,7.088,8.844,11.975,12.161c5.939,4.08,13.227,6.64,20.875,6.631c7.65,0.01,14.936-2.551,20.875-6.63
						c4.512-3.062,8.254-6.986,11.238-11.113l-0.213-0.302c-2.998,4.058-6.734,7.897-11.217,10.884
						C103.882,258.427,96.671,260.907,89.106,260.902z"/>
					<path style="fill:#FFFFFF;" d="M89.106,260.383c6.701,0.066,12.598-2.142,16.635-4.341c4.068-2.201,6.275-4.394,6.305-4.318
						c-0.023-0.076-2.311,1.966-6.396,3.99c-4.064,2.026-9.924,4.033-16.543,3.967c-6.617,0.065-12.479-1.941-16.541-3.967
						c-4.086-2.023-6.371-4.065-6.396-3.99c0.029-0.076,2.236,2.118,6.305,4.317C76.509,258.241,82.405,260.449,89.106,260.383z"/>
					<path style="fill:#FFFFFF;" d="M89.106,259.078c9.076,0.123,16.877-3.896,21.963-7.897c5.162-4.004,7.611-7.991,7.684-7.853
						c-0.064-0.139-2.619,3.721-7.809,7.544c-5.123,3.83-12.881,7.623-21.838,7.502c-8.957,0.12-16.715-3.673-21.838-7.503
						c-5.188-3.823-7.742-7.683-7.807-7.543c0.072-0.14,2.521,3.848,7.682,7.852C72.231,255.181,80.032,259.2,89.106,259.078z"/>
					<path style="fill:#FFFFFF;" d="M89.106,257.064c-7.004,0.002-13.688-2.259-19.178-5.895
						c-4.711-3.085-8.555-7.169-11.531-11.401l-0.193,0.278c2.957,4.316,6.797,8.49,11.537,11.655
						c5.521,3.73,12.275,6.073,19.365,6.065c7.092,0.009,13.848-2.334,19.367-6.064c4.355-2.909,7.953-6.671,10.801-10.606
						l-0.207-0.297c-2.863,3.864-6.457,7.538-10.783,10.369C102.794,254.805,96.114,257.066,89.106,257.064z"/>
					<path style="fill:#FFFFFF;" d="M89.106,255.778c-9.299,0.136-17.285-4.13-22.465-8.439c-4.678-3.826-7.131-7.682-7.674-8.378
						l-0.004,0.002c0.529,0.717,2.889,4.688,7.541,8.677c5.143,4.48,13.176,8.981,22.602,8.843
						c9.428,0.138,17.461-4.362,22.604-8.843c3.512-3.011,5.717-6.011,6.816-7.611l-0.025-0.035
						c-1.133,1.551-3.396,4.456-6.926,7.345C106.396,251.648,98.407,255.915,89.106,255.778z"/>
					<path style="fill:#FFFFFF;" d="M121.771,244.643c-1.152,1.581-3.729,4.985-7.902,8.368c-5.717,4.711-14.52,9.379-24.762,9.23
						c-10.24,0.148-19.041-4.519-24.758-9.229c-5.803-4.703-8.52-9.447-8.607-9.276c0.098-0.171,2.701,4.695,8.475,9.578
						c5.676,4.882,14.523,9.781,24.891,9.631c10.367,0.151,19.217-4.749,24.895-9.631c4.154-3.515,6.668-7.02,7.787-8.646
						L121.771,244.643z"/>
					<path style="fill:#FFFFFF;" d="M89.106,254.579c-8.066,0.005-15.76-3.14-21.771-8.192c-2.943-2.437-5.486-5.324-7.654-8.44
						l-0.244,0.349c2.164,3.17,4.713,6.11,7.672,8.598c6.049,5.161,13.83,8.401,21.998,8.39c8.172,0.012,15.951-3.229,22-8.391
						c2.629-2.211,4.938-4.779,6.936-7.547l-0.25-0.358c-2,2.719-4.301,5.237-6.912,7.399
						C104.868,251.44,97.175,254.585,89.106,254.579z"/>
					<path style="fill:#FFFFFF;" d="M89.106,252.153c-6.52,0.003-12.738-2.131-17.83-5.561c-4.229-2.813-7.689-6.509-10.389-10.36
						l-0.201,0.285c2.682,3.933,6.143,7.715,10.396,10.607c5.129,3.525,11.418,5.741,18.023,5.733
						c6.605,0.008,12.898-2.206,18.023-5.732c3.875-2.635,7.094-6.007,9.666-9.556l-0.215-0.302
						c-2.58,3.477-5.797,6.767-9.645,9.326C101.845,250.023,95.626,252.156,89.106,252.153z"/>
					<path style="fill:#FFFFFF;" d="M89.106,251.634c5.771,0.058,10.844-1.856,14.314-3.759c3.496-1.905,5.391-3.802,5.416-3.737
						c-0.02-0.064-1.992,1.681-5.508,3.408c-3.496,1.729-8.535,3.44-14.223,3.384c-5.684,0.056-10.725-1.656-14.221-3.385
						c-3.516-1.725-5.486-3.471-5.508-3.406c0.025-0.064,1.918,1.833,5.416,3.737C78.263,249.779,83.337,251.691,89.106,251.634z"/>
					<path style="fill:#FFFFFF;" d="M89.106,250.329c7.785,0.106,14.477-3.355,18.836-6.797c4.42-3.444,6.512-6.871,6.574-6.752
						c-0.055-0.119-2.252,3.18-6.699,6.444c-4.396,3.271-11.041,6.507-18.711,6.402c-7.67,0.105-14.314-3.131-18.707-6.402
						c-4.449-3.265-6.646-6.564-6.701-6.443c0.063-0.12,2.152,3.307,6.574,6.752C74.632,246.974,81.321,250.435,89.106,250.329z"/>
					<path style="fill:#FFFFFF;" d="M89.106,248.314c-5.977,0.002-11.676-1.923-16.361-5.021c-4.061-2.652-7.367-6.174-9.92-9.819
						l-0.193,0.278c2.531,3.729,5.834,7.341,9.922,10.074c4.719,3.192,10.49,5.199,16.553,5.191
						c6.063,0.008,11.836-1.998,16.555-5.191c3.703-2.477,6.762-5.675,9.188-9.023l-0.209-0.297
						c-2.441,3.275-5.494,6.387-9.168,8.787C100.786,246.392,95.087,248.317,89.106,248.314z"/>
					<path style="fill:#FFFFFF;" d="M89.106,247.028c-7.9,0.116-14.693-3.496-19.104-7.149c-4.307-3.508-6.406-7.051-6.619-7.195
						l0,0c0.209,0.148,2.205,3.812,6.486,7.495c4.371,3.825,11.207,7.67,19.236,7.553c8.029,0.117,14.869-3.728,19.24-7.553
						c2.949-2.536,4.811-5.061,5.754-6.439l-0.025-0.037c-0.979,1.329-2.896,3.761-5.865,6.176
						C103.804,243.532,97.009,247.145,89.106,247.028z"/>
					<path style="fill:#FFFFFF;" d="M117.345,238.351c-1.016,1.384-3.238,4.291-6.815,7.179c-4.951,4.066-12.568,8.092-21.424,7.962
						c-8.855,0.128-16.471-3.896-21.42-7.962c-5.025-4.058-7.385-8.156-7.459-8.008c0.08-0.148,2.328,4.071,7.324,8.311
						c4.912,4.237,12.574,8.493,21.555,8.364c8.984,0.13,16.646-4.126,21.559-8.364c3.557-3.018,5.717-6.024,6.697-7.454
						L117.345,238.351z"/>
					<path style="fill:#FFFFFF;" d="M70.737,238.748c-2.52-2.082-4.693-4.554-6.539-7.223l-0.246,0.348
						c1.844,2.723,4.025,5.247,6.559,7.382c5.111,4.368,11.688,7.111,18.596,7.101c6.908,0.012,13.486-2.733,18.598-7.101
						c2.205-1.857,4.141-4.012,5.822-6.332l-0.252-0.357c-1.682,2.271-3.607,4.375-5.799,6.184
						c-5.072,4.258-11.563,6.907-18.369,6.904C82.302,245.654,75.81,243.007,70.737,238.748z"/>
					<path style="fill:#FFFFFF;" d="M89.106,243.225c-5.453,0.002-10.654-1.778-14.92-4.645c-3.58-2.377-6.506-5.511-8.781-8.771
						l-0.199,0.282c2.256,3.343,5.18,6.564,8.785,9.02c4.301,2.962,9.576,4.824,15.115,4.816c5.541,0.008,10.818-1.854,15.113-4.815
						c3.23-2.199,5.91-5.009,8.059-7.967l-0.215-0.303c-2.154,2.887-4.836,5.614-8.035,7.737
						C99.765,241.447,94.562,243.227,89.106,243.225z"/>
					<path style="fill:#FFFFFF;" d="M89.106,242.708c4.82,0.048,9.055-1.565,11.947-3.168c2.914-1.605,4.486-3.199,4.508-3.145
						c0.07-0.088-6.879,5.722-16.455,5.608c-9.572,0.113-16.521-5.697-16.453-5.608c0.021-0.054,1.594,1.54,4.508,3.145
						C80.056,241.143,84.288,242.755,89.106,242.708z"/>
					<path style="fill:#FFFFFF;" d="M89.106,241.4c6.473,0.088,12.029-2.803,15.643-5.674c3.664-2.875,5.393-5.729,5.445-5.629
						c-0.045-0.099-1.877,2.628-5.572,5.321c-3.648,2.7-9.16,5.365-15.516,5.279c-6.355,0.086-11.865-2.58-15.514-5.279
						c-3.693-2.694-5.525-5.421-5.572-5.322c0.053-0.1,1.779,2.755,5.447,5.629C77.079,238.597,82.636,241.487,89.106,241.4z"/>
					<path style="fill:#FFFFFF;" d="M89.106,239.387c-4.926,0.002-9.625-1.582-13.49-4.131c-3.395-2.211-6.154-5.159-8.274-8.204
						l-0.193,0.276c2.1,3.129,4.855,6.168,8.277,8.462c3.896,2.645,8.668,4.307,13.68,4.3c5.014,0.007,9.785-1.656,13.684-4.3
						c3.035-2.037,5.547-4.661,7.543-7.41l-0.211-0.297c-2.008,2.675-4.516,5.214-7.523,7.173
						C98.733,237.806,94.034,239.389,89.106,239.387z"/>
					<path style="fill:#FFFFFF;" d="M109.558,227.28c-0.82,1.099-2.385,3.05-4.777,4.987c-3.623,2.984-9.197,5.93-15.674,5.835
						c-6.475,0.094-12.049-2.851-15.67-5.835c-3.559-2.881-5.295-5.796-5.453-5.885c0.158,0.091,1.785,3.128,5.316,6.185
						c3.586,3.157,9.205,6.335,15.807,6.238c6.604,0.097,12.223-3.082,15.807-6.238c2.375-2.055,3.887-4.099,4.672-5.247
						L109.558,227.28z"/>
					<path style="fill:#FFFFFF;" d="M112.829,231.93c-0.875,1.181-2.74,3.582-5.703,5.965c-4.17,3.408-10.576,6.776-18.02,6.669
						c-7.443,0.107-13.848-3.26-18.016-6.669c-4.092-3.288-6.09-6.612-6.273-6.716c0.182,0.107,2.076,3.553,6.139,7.018
						c4.133,3.579,10.582,7.18,18.15,7.07c7.57,0.11,14.021-3.49,18.152-7.07c2.945-2.511,4.748-5.009,5.592-6.238L112.829,231.93z"
						/>
					<path style="fill:#FFFFFF;" d="M74.14,231.109c-2.094-1.728-3.896-3.785-5.424-6.007l-0.246,0.347
						c1.523,2.276,3.332,4.389,5.443,6.169c4.174,3.574,9.549,5.822,15.193,5.812c5.648,0.011,11.021-2.237,15.195-5.812
						c1.781-1.503,3.346-3.244,4.707-5.117l-0.254-0.36c-1.359,1.825-2.914,3.515-4.68,4.97c-4.137,3.464-9.426,5.617-14.969,5.615
						C83.563,236.726,78.276,234.573,74.14,231.109z"/>
					<path style="fill:#FFFFFF;" d="M89.108,234.297c-8.354,0.183-15.148-5.127-19.18-10.92l-0.203,0.29
						c1.83,2.751,4.217,5.412,7.178,7.434c3.467,2.398,7.727,3.906,12.205,3.899c4.475,0.006,8.734-1.501,12.205-3.898
						c2.58-1.763,4.725-4.011,6.445-6.379l-0.223-0.315C103.44,229.785,96.962,234.47,89.108,234.297z"/>
					<path style="fill:#FFFFFF;" d="M89.108,233.78c3.867,0.039,7.262-1.274,9.578-2.575c2.332-1.303,3.584-2.594,3.602-2.551
						c0.053-0.067-5.533,4.513-13.18,4.42c-7.648,0.093-13.232-4.487-13.18-4.42c0.017-0.043,1.266,1.248,3.601,2.551
						C81.843,232.506,85.239,233.818,89.108,233.78z"/>
					<path style="fill:#FFFFFF;" d="M89.108,232.473c5.156,0.07,9.578-2.251,12.445-4.552c2.914-2.303,4.275-4.586,4.318-4.506
						c-0.035-0.08-1.502,2.076-4.441,4.199c-2.906,2.128-7.283,4.226-12.322,4.157c-5.041,0.069-9.42-2.028-12.322-4.158
						c-2.941-2.122-4.406-4.278-4.441-4.198c0.041-0.08,1.402,2.203,4.318,4.506C79.528,230.221,83.95,232.542,89.108,232.473z"/>
					<path style="fill:#FFFFFF;" d="M89.108,230.458c-7.539,0.162-13.664-4.666-17.242-9.838l-0.191,0.274
						c3.535,5.34,9.713,10.434,17.434,10.267c7.209,0.156,13.076-4.278,16.697-9.214l-0.209-0.296
						C101.948,226.415,96.14,230.61,89.108,230.458z"/>
					<path style="fill:#FFFFFF;" d="M105.042,220.858c-0.658,0.865-1.871,2.337-3.691,3.796c-2.84,2.314-7.191,4.592-12.242,4.518
						c-5.053,0.074-9.404-2.204-12.242-4.518c-2.879-2.308-4.246-4.654-4.285-4.568c0.049-0.086,1.299,2.379,4.15,4.87
						c2.799,2.486,7.197,4.998,12.377,4.921c5.176,0.076,9.576-2.435,12.375-4.921c1.803-1.575,2.963-3.137,3.59-4.053
						L105.042,220.858z"/>
					<path style="fill:#FFFFFF;" d="M108.312,225.509c-0.732,0.975-2.236,2.872-4.592,4.751c-3.387,2.75-8.582,5.463-14.611,5.375
						c-6.031,0.089-11.227-2.625-14.613-5.375c-3.326-2.655-4.959-5.345-5.105-5.424c0.145,0.083,1.672,2.894,4.971,5.726
						c3.35,2.921,8.592,5.866,14.748,5.777c6.154,0.089,11.395-2.856,14.746-5.778c2.334-2.003,3.781-3.996,4.48-5.019
						L108.312,225.509z"/>
					<path style="fill:#FFFFFF;" d="M77.542,223.469c-1.67-1.372-3.102-3.017-4.307-4.794l-0.244,0.344
						c1.203,1.83,2.639,3.531,4.324,4.957c3.236,2.779,7.406,4.531,11.793,4.523c4.383,0.008,8.557-1.743,11.791-4.523
						c1.357-1.148,2.551-2.474,3.592-3.9l-0.254-0.361c-1.039,1.378-2.225,2.654-3.563,3.755c-3.199,2.672-7.285,4.327-11.566,4.326
						C84.825,227.797,80.741,226.14,77.542,223.469z"/>
					<path style="fill:#FFFFFF;" d="M89.108,225.369c-6.406,0.139-11.611-3.967-14.664-8.413l-0.197,0.277
						c3.014,4.613,8.275,8.982,14.861,8.838c6.078,0.133,11.029-3.582,14.125-7.784l-0.213-0.303
						C99.901,222.015,95.015,225.498,89.108,225.369z"/>
					<path style="fill:#FFFFFF;" d="M89.108,224.852c5.932,0.046,9.971-4.015,9.904-3.939c0.035-0.048-4.184,3.309-9.904,3.235
						c-5.723,0.073-9.943-3.283-9.906-3.236C79.136,220.836,83.177,224.898,89.108,224.852z"/>
					<path style="fill:#FFFFFF;" d="M89.108,223.545c3.842,0.053,7.129-1.699,9.254-3.43c2.158-1.733,3.152-3.443,3.188-3.384
						c-0.025-0.059-1.127,1.523-3.313,3.077c-2.16,1.557-5.404,3.083-9.129,3.033c-3.727,0.051-6.969-1.476-9.129-3.034
						c-2.186-1.552-3.289-3.135-3.313-3.077c0.031-0.058,1.027,1.652,3.188,3.385C81.978,221.846,85.265,223.598,89.108,223.545z"/>
					<path style="fill:#FFFFFF;" d="M76.384,214.198l-0.189,0.268c2.559,4,7.146,7.892,12.914,7.768
						c5.254,0.112,9.527-3.107,12.182-6.707l-0.209-0.298c-2.68,3.426-6.893,6.411-11.973,6.301
						C83.522,221.651,78.987,218.033,76.384,214.198z"/>
					<path style="fill:#FFFFFF;" d="M100.522,214.434c-0.492,0.626-1.352,1.622-2.605,2.61c-2.051,1.645-5.184,3.256-8.809,3.202
						c-3.627,0.053-6.758-1.558-8.811-3.203c-2.082-1.639-3.084-3.314-3.113-3.253c0.039-0.061,0.926,1.733,2.979,3.554
						c2.014,1.817,5.193,3.66,8.945,3.605c3.752,0.055,6.932-1.789,8.945-3.605c1.236-1.097,2.047-2.181,2.504-2.858
						L100.522,214.434z"/>
					<path style="fill:#FFFFFF;" d="M103.794,219.085c-0.584,0.765-1.729,2.158-3.479,3.541c-2.605,2.092-6.59,4.148-11.207,4.081
						c-4.617,0.067-8.602-1.99-11.207-4.081c-2.645-2.087-3.91-4.208-3.949-4.13c0.047-0.078,1.201,2.164,3.814,4.432
						c2.568,2.264,6.598,4.552,11.342,4.483c4.742,0.069,8.773-2.219,11.342-4.483c1.73-1.503,2.82-2.992,3.371-3.804
						L103.794,219.085z"/>
					<path style="fill:#FFFFFF;" d="M77.726,212.289l-0.18,0.256c2.225,3.556,6.352,7.139,11.563,7.028
						c4.688,0.099,8.498-2.792,10.834-5.963l-0.205-0.292c-2.367,2.998-6.115,5.648-10.629,5.552
						C84.081,218.977,80.005,215.681,77.726,212.289z"/>
					<path style="fill:#FFFFFF;" d="M80.896,212.993c-0.904-0.848-1.561-1.704-2.004-2.36l-0.061,0.086
						c0.41,0.705,1.027,1.627,1.916,2.561c1.805,1.945,4.781,3.925,8.361,3.865c3.58,0.059,6.555-1.92,8.361-3.865
						c0.479-0.502,0.875-1.002,1.209-1.467l-0.113-0.159c-0.348,0.428-0.76,0.885-1.246,1.34c-1.852,1.774-4.777,3.505-8.211,3.449
						C85.673,216.498,82.749,214.767,80.896,212.993z"/>
					<path style="fill:#FFFFFF;" d="M81.868,212.439c-1.316-1.111-2.084-2.24-2.373-2.663l-0.012,0.016
						c0.26,0.46,0.951,1.689,2.244,2.94c1.629,1.604,4.254,3.238,7.381,3.191c3.127,0.047,5.752-1.588,7.379-3.191
						c0.674-0.65,1.182-1.294,1.553-1.829l-0.078-0.109c-0.396,0.487-0.93,1.067-1.617,1.644c-1.67,1.433-4.244,2.828-7.236,2.781
						C86.114,215.266,83.538,213.871,81.868,212.439z"/>
					<path style="fill:#FFFFFF;" d="M89.108,214.616c2.527,0.035,4.68-1.148,6.059-2.306c1.404-1.163,2.037-2.301,2.059-2.262
						c0.064-0.046-3.201,3.962-8.117,3.865c-4.918,0.096-8.184-3.911-8.119-3.865c0.021-0.039,0.654,1.1,2.059,2.261
						C84.427,213.468,86.581,214.651,89.108,214.616z"/>
					<path style="fill:#FFFFFF;" d="M96.675,208.962c-0.58,0.692-3.449,3.726-7.566,3.641c-4.168,0.085-7.055-3.02-7.584-3.665
						c0.205,0.311,0.783,1.197,1.832,2.102c1.299,1.136,3.342,2.298,5.752,2.265c2.408,0.033,4.451-1.129,5.748-2.266
						c1.021-0.881,1.598-1.743,1.818-2.075V208.962z"/>
					<path style="fill:#FFFFFF;" d="M89.108,211.108c3.41,0.026,5.584-2.646,5.535-2.593c0.025-0.026-2.303,2.125-5.535,2.071
						c-3.234,0.054-5.563-2.097-5.535-2.071C83.522,208.462,85.696,211.134,89.108,211.108z"/>
					<path style="fill:#FFFFFF;" d="M89.108,211.952c4.238,0.039,6.768-3.682,6.691-3.606c0.049-0.04-2.658,3.158-6.691,3.085
						c-4.035,0.073-6.742-3.124-6.693-3.085C82.339,208.269,84.866,211.991,89.108,211.952z"/>
					<path style="fill:#FFFFFF;" d="M79.034,212.588c-0.287-0.35-0.545-0.699-0.783-1.045l-0.145,0.206
						c0.227,0.362,0.477,0.731,0.756,1.1c2.066,2.837,5.719,5.722,10.244,5.636c4.525,0.087,8.18-2.797,10.248-5.635
						c0.01-0.013,0.018-0.026,0.027-0.039l-0.18-0.252c-0.006,0.011-0.014,0.02-0.023,0.03c-2.117,2.669-5.719,5.275-10.072,5.191
						C84.755,217.864,81.153,215.257,79.034,212.588z"/>
				</g>
				<rect x="56.257" y="200.017" style="fill:#FFFFFF;" width="21.85" height="0.712"/>
				<rect x="56.257" y="201.619" style="fill:#FFFFFF;" width="12.213" height="0.711"/>
				<rect x="99.409" y="200.817" style="fill:#FFFFFF;" width="21.848" height="0.711"/>
				<g>
					<rect x="55.614" y="277.432" style="fill:#FFFFFF;" width="66.248" height="0.711"/>
					<rect x="55.614" y="278.855" style="fill:#FFFFFF;" width="66.248" height="0.711"/>
					<rect x="55.614" y="280.278" style="fill:#FFFFFF;" width="66.248" height="0.711"/>
					<rect x="55.614" y="281.702" style="fill:#FFFFFF;" width="66.248" height="0.712"/>
					<rect x="55.614" y="283.126" style="fill:#FFFFFF;" width="66.248" height="0.711"/>
					<rect x="55.614" y="284.55" style="fill:#FFFFFF;" width="66.248" height="0.711"/>
					<rect x="55.614" y="285.973" style="fill:#FFFFFF;" width="66.248" height="0.713"/>
					<rect x="55.614" y="287.397" style="fill:#FFFFFF;" width="66.248" height="0.712"/>
					<rect x="55.614" y="288.82" style="fill:#FFFFFF;" width="66.248" height="0.712"/>
				</g>
				<rect x="99.409" y="202.419" style="fill:#FFFFFF;" width="12.213" height="0.711"/>
			</g>
		</g>
	</g>
</g>
</svg>
